<svg width="4430" height="742" viewBox="0 0 4430 742" fill="none" xmlns="http://www.w3.org/2000/svg">
<path d="M1 1V235L222.963 182.216L1 1Z" fill="#E0A890"/>
<path d="M574.231 469H802.312L969.206 353.234L852.09 266.607L444.926 363.432L574.231 469Z" fill="#E0A890"/>
<path d="M1617.04 399.16L1905.81 262.925L1614.87 85.2139L1369.28 143.618L1617.04 399.16Z" fill="#E0A890"/>
<path d="M2961 669.11L2685 417L2461 602.049L2961 669.11Z" fill="#E0A890"/>
<path d="M3845.49 140.185L3774.63 247.973L4139.35 316.543L4429 186V1L3845.49 140.185Z" fill="#E0A890"/>
<path d="M493 1H1L222.963 182.216L329 157L493 1Z" fill="#CE1483"/>
<path d="M969.206 353.234L802.312 469H1125.72L969.206 353.234Z" fill="#CE1483"/>
<path d="M1967.26 233.935L1969 1L1614.87 85.2139L1905.81 262.925L1967.26 233.935Z" fill="#CE1483"/>
<path d="M3774.23 248.588L3773 247.667L3561.56 207.913L2942.9 355.482L3557 579L3774.23 248.588Z" fill="#CE1483"/>
<path d="M4429 371V186L4139.35 316.543L4429 371Z" fill="#CE1483"/>
<path d="M444.926 363.432L852.09 266.607L612.697 89.5356L329 157L265.759 217.156L444.926 363.432Z" fill="#129490"/>
<path d="M1966.76 300.157L2208.26 447.669L2704.14 268.575L2246.73 102.088L1967.26 233.935L1966.76 300.157Z" fill="#129490"/>
<path d="M3774.23 248.588L3557 579L3967.55 393.972L3774.23 248.588Z" fill="#129490"/>
<path d="M3497 741L2685 417L2961 669.11L3497 741Z" fill="#CE1483"/>
<path d="M2157 741L1469 469L1781 693.564L2157 741Z" fill="#129490"/>
<path d="M493 1L329 157L612.697 89.5356L493 1Z" fill="#70B77E"/>
<path d="M1257.42 469L1126.52 244.115L969.206 353.234L1125.72 469H1257.42Z" fill="#70B77E"/>
<path d="M1969 1L1967.26 233.935L2246.73 102.088L1969 1Z" fill="#70B77E"/>
<path d="M2685 417L3557 579L2942.9 355.482L2685 417Z" fill="#70B77E"/>
<path d="M4429 741V371L4139.35 316.543L3967.55 393.972L4429 741Z" fill="#70B77E"/>
<path d="M1781 693.564L1469 469H1257.42L1357 640.072L1781 693.564Z" fill="#065143"/>
<path d="M1 469L444.926 363.432L265.759 217.156L1 469Z" fill="#065143"/>
<path d="M2461 602.049L2727.12 276.941L2704.14 268.575L2208.26 447.669L2461 602.049Z" fill="#065143"/>
<path d="M3557 579L4429 741L3967.55 393.972L3557 579Z" fill="#065143"/>
<path d="M3937 1H3445L3681.95 179.195L3845.49 140.185L3937 1Z" fill="#CE1483"/>
<path d="M679 554.536L1357 640.072L1125.72 469H802.312L679 554.536Z" fill="#129490"/>
<path d="M1125.72 469L1357 640.072L1257.42 469H1125.72Z" fill="#E0A890"/>
<path d="M802.312 469H574.231L679 554.536L802.312 469Z" fill="#065143"/>
<path d="M1 469L679 554.536L574.231 469H1Z" fill="#CE1483"/>
<path d="M574.231 469L444.926 363.432L1 469H574.231Z" fill="#70B77E"/>
<path d="M1 235V469L265.759 217.156L222.963 182.216L1 235Z" fill="#70B77E"/>
<path d="M329 157L222.963 182.216L265.759 217.156L329 157Z" fill="#065143"/>
<path d="M852.09 266.607L1104.65 206.547L985 1L612.697 89.5356L852.09 266.607Z" fill="#CE1483"/>
<path d="M985 1H493L612.697 89.5356L985 1Z" fill="#E0A890"/>
<path d="M852.09 266.607L969.206 353.234L1126.52 244.115L1104.65 206.547L852.09 266.607Z" fill="#065143"/>
<path d="M1617.04 399.16L1369.28 143.618L1220.34 179.036L1126.52 244.115L1257.42 469H1469L1617.04 399.16Z" fill="#129490"/>
<path d="M1104.65 206.547L1126.52 244.115L1220.34 179.036L1104.65 206.547Z" fill="#E0A890"/>
<path d="M1231 1H985L1104.65 206.547L1220.34 179.036L1329.92 103.024L1231 1Z" fill="#70B77E"/>
<path d="M1477 1H1231L1329.92 103.024L1477 1Z" fill="#065143"/>
<path d="M1369.28 143.618L1614.87 85.2139L1477 1L1329.92 103.024L1369.28 143.618Z" fill="#129490"/>
<path d="M1220.34 179.036L1369.28 143.618L1329.92 103.024L1220.34 179.036Z" fill="#CE1483"/>
<path d="M1469 469L1717 502.262L1617.04 399.16L1469 469Z" fill="#CE1483"/>
<path d="M1717 502.262L1965 535.525L1966.76 300.157L1905.81 262.925L1617.04 399.16L1717 502.262Z" fill="#065143"/>
<path d="M1967.26 233.935L1905.81 262.925L1966.76 300.157L1967.26 233.935Z" fill="#E0A890"/>
<path d="M2208.26 447.669L1966.76 300.157L1965 535.525L2208.26 447.669Z" fill="#CE1483"/>
<path d="M1965 535.525L2461 602.049L2208.26 447.669L1965 535.525Z" fill="#70B77E"/>
<path d="M2461 1H1969L2246.73 102.088L2461 1Z" fill="#E0A890"/>
<path d="M2746.5 253.276L2887.38 81.1631L2461 1L2246.73 102.088L2704.14 268.575L2746.5 253.276Z" fill="#CE1483"/>
<path d="M2461 602.049L2685 417L2942.9 355.482L2727.12 276.941L2461 602.049Z" fill="#129490"/>
<path d="M2746.5 253.276L3108.13 122.666L2887.38 81.1631L2746.5 253.276Z" fill="#70B77E"/>
<path d="M2727.12 276.941L2746.5 253.276L2704.14 268.575L2727.12 276.941Z" fill="#C4C4C4"/>
<path d="M2942.9 355.482L3561.56 207.913L3108.13 122.666L2746.5 253.276L2727.12 276.941L2942.9 355.482Z" fill="#065143"/>
<path d="M2953 1H2461L2887.38 81.1631L2953 1Z" fill="#E0A890"/>
<path d="M3445 1H2953L2887.38 81.1631L3108.13 122.666L3445 1Z" fill="#129490"/>
<path d="M3108.13 122.666L3561.56 207.913L3681.95 179.195L3445 1L3108.13 122.666Z" fill="#E0A890"/>
<path d="M3561.56 207.913L3773 247.667L3681.95 179.195L3561.56 207.913Z" fill="#70B77E"/>
<path d="M3774.63 247.973L3845.49 140.185L3681.95 179.195L3773 247.667L3774.63 247.973Z" fill="#065143"/>
<path d="M4139.35 316.543L3774.63 247.973L3774.23 248.588L3967.55 393.972L4139.35 316.543Z" fill="#065143"/>
<path d="M4429 1H3937L3845.49 140.185L4429 1Z" fill="#70B77E"/>
<path d="M1969 1H1477L1614.87 85.2139L1969 1Z" fill="#70B77E"/>
<path d="M1 1V0.5H0.5V1H1ZM1 469H0.5V469.441L0.937416 469.496L1 469ZM2157 741L2156.94 741.496L2157.18 740.535L2157 741ZM3497 741L3496.93 741.496L3497.19 740.536L3497 741ZM2685 417L2684.88 416.514L2684.77 416.541L2684.68 416.615L2685 417ZM4429 741L4428.91 741.492L4429.5 741.601V741H4429ZM4429 1H4429.5V0.5H4429V1ZM1781 693.564L1780.94 694.06L1780.94 694.06L1781 693.564ZM1357 640.072L1356.94 640.568L1356.94 640.568L1357 640.072ZM2961 669.11L2960.93 669.606L2960.93 669.606L2961 669.11ZM2157.18 740.535L1469.18 468.535L1468.82 469.465L2156.82 741.465L2157.18 740.535ZM3497.19 740.536L2685.19 416.536L2684.81 417.464L3496.81 741.464L3497.19 740.536ZM1780.94 694.06L2156.94 741.496L2157.06 740.504L1781.06 693.068L1780.94 694.06ZM1468.71 469.406L1780.71 693.97L1781.29 693.158L1469.29 468.594L1468.71 469.406ZM493 0.5H1V1.5H493V0.5ZM1356.94 640.568L1780.94 694.06L1781.06 693.068L1357.06 639.576L1356.94 640.568ZM2960.93 669.606L3496.93 741.496L3497.07 740.504L2961.07 668.615L2960.93 669.606ZM2684.66 417.369L2960.66 669.48L2961.34 668.741L2685.34 416.631L2684.66 417.369ZM0.937416 469.496L678.937 555.032L679.063 554.04L1.06258 468.504L0.937416 469.496ZM678.937 555.032L1356.94 640.568L1357.06 639.576L679.063 554.04L678.937 555.032ZM2460.93 602.545L2960.93 669.606L2961.07 668.615L2461.07 601.554L2460.93 602.545ZM0.5 1V235H1.5V1H0.5ZM0.5 235V469H1.5V235H0.5ZM985 0.5H493V1.5H985V0.5ZM1964.93 536.02L2460.93 602.545L2461.07 601.554L1965.07 535.029L1964.93 536.02ZM2461 0.5H1969V1.5H2461V0.5ZM1969 0.5H1477V1.5H1969V0.5ZM2684.91 417.492L3556.91 579.492L3557.09 578.508L2685.09 416.508L2684.91 417.492ZM3556.91 579.492L4428.91 741.492L4429.09 740.508L3557.09 578.508L3556.91 579.492ZM4429.5 741V371H4428.5V741H4429.5ZM4429 0.5H3937V1.5H4429V0.5ZM3937 0.5H3445V1.5H3937V0.5ZM1477 0.5H1231V1.5H1477V0.5ZM1231 0.5H985V1.5H1231V0.5ZM1468.93 469.496L1716.93 502.758L1717.07 501.767L1469.07 468.504L1468.93 469.496ZM1716.93 502.758L1964.93 536.02L1965.07 535.029L1717.07 501.767L1716.93 502.758ZM3445 0.5H2953V1.5H3445V0.5ZM2953 0.5H2461V1.5H2953V0.5ZM2684.68 416.615L2460.68 601.664L2461.32 602.435L2685.32 417.385L2684.68 416.615ZM4429.5 371V186H4428.5V371H4429.5ZM4429.5 186V1H4428.5V186H4429.5ZM1.11568 235.486L223.079 182.703L222.847 181.73L0.884323 234.514L1.11568 235.486ZM223.279 181.829L1.31621 0.612688L0.683789 1.38731L222.647 182.603L223.279 181.829ZM574.231 469.5H802.312V468.5H574.231V469.5ZM802.597 469.411L969.491 353.645L968.921 352.823L802.027 468.589L802.597 469.411ZM969.503 352.832L852.387 266.205L851.792 267.009L968.908 353.636L969.503 352.832ZM851.974 266.12L444.81 362.946L445.042 363.919L852.205 267.093L851.974 266.12ZM444.61 363.82L573.915 469.387L574.547 468.613L445.242 363.045L444.61 363.82ZM1.11568 469.486L445.042 363.919L444.81 362.946L0.884323 468.514L1.11568 469.486ZM679.285 554.947L802.597 469.411L802.027 468.589L678.715 554.125L679.285 554.947ZM679.316 554.149L574.547 468.613L573.915 469.387L678.684 554.924L679.316 554.149ZM574.231 468.5H1V469.5H574.231V468.5ZM1617.25 399.612L1906.02 263.378L1905.59 262.473L1616.82 398.708L1617.25 399.612ZM1906.07 262.499L1615.13 84.7872L1614.61 85.6406L1905.55 263.352L1906.07 262.499ZM1614.75 84.7275L1369.16 143.131L1369.39 144.104L1614.99 85.7003L1614.75 84.7275ZM1368.92 143.966L1616.68 399.508L1617.4 398.812L1369.63 143.269L1368.92 143.966ZM1614.99 85.7003L1969.12 1.48643L1968.88 0.513565L1614.75 84.7275L1614.99 85.7003ZM1476.74 1.4267L1614.61 85.6406L1615.13 84.7872L1477.26 0.573304L1476.74 1.4267ZM1616.68 399.508L1716.64 502.61L1717.36 501.914L1617.4 398.812L1616.68 399.508ZM1469.21 469.452L1617.25 399.612L1616.82 398.708L1468.79 468.548L1469.21 469.452ZM2943.02 355.968L3561.67 208.4L3561.44 207.427L2942.79 354.995L2943.02 355.968ZM3561.65 207.422L3108.22 122.174L3108.04 123.157L3561.46 208.405L3561.65 207.422ZM3107.96 122.195L2746.33 252.806L2746.66 253.746L3108.3 123.136L3107.96 122.195ZM2746.11 252.959L2726.74 276.625L2727.51 277.258L2746.88 253.592L2746.11 252.959ZM2726.95 277.411L2942.73 355.951L2943.08 355.012L2727.29 276.472L2726.95 277.411ZM3108.3 123.136L3445.17 1.47027L3444.83 0.529731L3107.96 122.195L3108.3 123.136ZM2461.39 602.366L2727.51 277.258L2726.74 276.625L2460.61 601.733L2461.39 602.366ZM2942.73 355.951L3556.83 579.47L3557.17 578.53L2943.08 355.012L2942.73 355.951ZM2942.79 354.995L2684.88 416.514L2685.12 417.486L2943.02 355.968L2942.79 354.995ZM3845.08 139.91L3774.21 247.698L3775.05 248.248L3845.91 140.459L3845.08 139.91ZM3774.54 248.465L4139.26 317.034L4139.44 316.052L3774.72 247.482L3774.54 248.465ZM4139.55 316.999L4429.21 186.456L4428.79 185.544L4139.14 316.087L4139.55 316.999ZM4428.88 0.513645L3845.38 139.698L3845.61 140.671L4429.12 1.48636L4428.88 0.513645ZM4139.26 317.034L4428.91 371.491L4429.09 370.509L4139.44 316.052L4139.26 317.034ZM3936.58 0.725324L3845.08 139.91L3845.91 140.459L3937.42 1.27468L3936.58 0.725324ZM223.079 182.703L329.116 157.486L328.884 156.514L222.847 181.73L223.079 182.703ZM329.345 157.362L493.345 1.36228L492.655 0.637721L328.655 156.638L329.345 157.362ZM802.312 469.5H1125.72V468.5H802.312V469.5ZM1126.01 468.598L969.503 352.832L968.908 353.636L1125.42 469.402L1126.01 468.598ZM1125.42 469.402L1356.7 640.474L1357.3 639.67L1126.01 468.598L1125.42 469.402ZM1967.76 233.939L1969.5 1.00374L1968.5 0.996258L1966.76 233.932L1967.76 233.939ZM1906.02 263.378L1967.47 234.387L1967.04 233.483L1905.59 262.473L1906.02 263.378ZM3774.53 248.189L3773.3 247.267L3772.7 248.066L3773.93 248.988L3774.53 248.189ZM3773.09 247.175L3561.65 207.422L3561.46 208.405L3772.91 248.158L3773.09 247.175ZM3557.42 579.275L3774.64 248.863L3773.81 248.314L3556.58 578.725L3557.42 579.275ZM3772.91 248.158L3774.54 248.465L3774.72 247.482L3773.09 247.175L3772.91 248.158ZM3774.21 247.698L3773.81 248.314L3774.64 248.863L3775.05 248.248L3774.21 247.698ZM852.387 266.205L612.994 89.1336L612.399 89.9376L851.792 267.009L852.387 266.205ZM612.581 89.0491L328.884 156.514L329.116 157.486L612.812 90.022L612.581 89.0491ZM328.655 156.638L265.415 216.794L266.104 217.518L329.345 157.362L328.655 156.638ZM265.443 217.543L444.61 363.82L445.242 363.045L266.075 216.769L265.443 217.543ZM1.34461 469.362L266.104 217.518L265.415 216.794L0.655393 468.638L1.34461 469.362ZM612.812 90.022L985.116 1.48643L984.884 0.513565L612.581 89.0491L612.812 90.022ZM266.075 216.769L223.279 181.829L222.647 182.603L265.443 217.543L266.075 216.769ZM492.703 1.40198L612.399 89.9376L612.994 89.1336L493.297 0.598015L492.703 1.40198ZM1966.5 300.584L2208 448.095L2208.52 447.242L1967.02 299.731L1966.5 300.584ZM2208.43 448.139L2704.31 269.045L2703.97 268.104L2208.09 447.198L2208.43 448.139ZM2704.31 268.105L2246.9 101.618L2246.56 102.557L2703.96 269.044L2704.31 268.105ZM2246.52 101.635L1967.04 233.483L1967.47 234.387L2246.94 102.54L2246.52 101.635ZM1966.76 233.932L1966.26 300.153L1967.26 300.161L1967.76 233.939L1966.76 233.932ZM2246.94 102.54L2461.21 1.4522L2460.79 0.547797L2246.52 101.635L2246.94 102.54ZM1968.83 1.46984L2246.56 102.557L2246.9 101.618L1969.17 0.530155L1968.83 1.46984ZM2703.96 269.044L2726.95 277.411L2727.29 276.472L2704.31 268.105L2703.96 269.044ZM1965.17 535.995L2208.43 448.139L2208.09 447.198L1964.83 535.054L1965.17 535.995ZM2704.31 269.045L2746.66 253.746L2746.33 252.806L2703.97 268.104L2704.31 269.045ZM1965.5 535.528L1967.26 300.161L1966.26 300.153L1964.5 535.521L1965.5 535.528ZM1905.55 263.352L1966.5 300.584L1967.02 299.731L1906.07 262.499L1905.55 263.352ZM2208 448.095L2460.74 602.476L2461.26 601.623L2208.52 447.242L2208 448.095ZM4429.3 740.6L3967.85 393.572L3967.25 394.371L4428.7 741.4L4429.3 740.6ZM3967.34 393.516L3556.79 578.544L3557.21 579.456L3967.75 394.428L3967.34 393.516ZM3773.93 248.988L3967.25 394.371L3967.85 393.572L3774.53 248.189L3773.93 248.988ZM3967.75 394.428L4139.55 316.999L4139.14 316.087L3967.34 393.516L3967.75 394.428ZM1257.85 468.748L1126.95 243.863L1126.08 244.367L1256.99 469.252L1257.85 468.748ZM1126.23 243.704L968.921 352.823L969.491 353.645L1126.8 244.526L1126.23 243.704ZM1125.72 469.5H1257.42V468.5H1125.72V469.5ZM1469 468.5H1257.42V469.5H1469V468.5ZM1256.99 469.252L1356.57 640.324L1357.43 639.821L1257.85 468.748L1256.99 469.252ZM3444.7 1.39961L3681.65 179.595L3682.25 178.795L3445.3 0.60039L3444.7 1.39961ZM3682.07 179.681L3845.61 140.671L3845.38 139.698L3681.84 178.709L3682.07 179.681ZM3681.65 179.595L3772.7 248.066L3773.3 247.267L3682.25 178.795L3681.65 179.595ZM3681.84 178.709L3561.44 207.427L3561.67 208.4L3682.07 179.681L3681.84 178.709ZM852.205 267.093L1104.76 207.034L1104.53 206.061L851.974 266.12L852.205 267.093ZM1105.08 206.296L985.432 0.748464L984.568 1.25154L1104.22 206.799L1105.08 206.296ZM1104.22 206.799L1126.08 244.367L1126.95 243.863L1105.08 206.296L1104.22 206.799ZM1369.16 143.131L1220.22 178.549L1220.45 179.522L1369.39 144.104L1369.16 143.131ZM1220.05 178.625L1126.23 243.704L1126.8 244.526L1220.62 179.447L1220.05 178.625ZM1104.76 207.034L1220.45 179.522L1220.22 178.549L1104.53 206.061L1104.76 207.034ZM1220.62 179.447L1330.2 103.435L1329.63 102.613L1220.05 178.625L1220.62 179.447ZM1330.28 102.676L1231.36 0.651954L1230.64 1.34805L1329.56 103.372L1330.28 102.676ZM1330.2 103.435L1477.28 1.41084L1476.72 0.589163L1329.63 102.613L1330.2 103.435ZM1329.56 103.372L1368.92 143.966L1369.63 143.269L1330.28 102.676L1329.56 103.372ZM2746.88 253.592L2887.77 81.4798L2886.99 80.8464L2746.11 252.959L2746.88 253.592ZM2887.47 80.6717L2461.09 0.508609L2460.91 1.49139L2887.29 81.6545L2887.47 80.6717ZM2887.29 81.6545L3108.04 123.157L3108.22 122.174L2887.47 80.6717L2887.29 81.6545ZM2887.77 81.4798L2953.39 1.31671L2952.61 0.683292L2886.99 80.8464L2887.77 81.4798Z" fill="black"/>
<path d="M354.719 281.297C338.969 262.922 331.094 235.078 331.094 197.766C331.094 161.203 341.828 133.547 363.297 114.797C363.859 114.234 364.562 113.672 365.406 113.109C349.094 120.328 336.016 131.719 326.172 147.281C316.047 163.219 310.984 180.797 310.984 200.016C310.984 225.984 319.609 248.203 336.859 266.672C342.203 272.391 348.156 277.266 354.719 281.297ZM485.219 200.438C485.219 193.781 484.375 186.984 482.688 180.047C481 173.016 478.609 166.172 475.516 159.516C472.516 152.766 468.859 146.391 464.547 140.391C460.328 134.297 455.688 129 450.625 124.5C439.469 114.562 428.031 109.594 416.312 109.594C393.25 109.594 375.344 119.062 362.594 138C351.344 154.781 345.719 174.703 345.719 197.766C345.719 214.641 347.219 228.047 350.219 237.984C353.219 247.922 356.359 255.938 359.641 262.031C363.016 268.031 367.141 273.281 372.016 277.781C382.422 287.25 395.547 291.984 411.391 291.984C424.047 291.984 436.375 287.156 448.375 277.5C459.25 268.594 468.156 256.875 475.094 242.344C481.844 228.094 485.219 214.125 485.219 200.438ZM499.844 200.438C499.844 210 498.578 219.375 496.047 228.562C493.609 237.656 490.141 246.234 485.641 254.297C481.234 262.359 475.891 269.719 469.609 276.375C463.328 283.031 456.438 288.75 448.938 293.531C433.094 303.562 416.078 308.578 397.891 308.578C370.047 308.578 346.094 297.938 326.031 276.656C313.469 263.344 304.75 247.406 299.875 228.844C297.438 219.562 296.219 209.953 296.219 200.016C296.219 180.422 300.859 162.188 310.141 145.312C319.047 129.094 331.234 116.062 346.703 106.219C362.359 96.375 379.422 91.4531 397.891 91.4531C416.922 91.4531 434.5 96.75 450.625 107.344C465.719 117.281 477.672 130.641 486.484 147.422C495.391 164.203 499.844 181.875 499.844 200.438ZM662.688 172.172H657.062C654.25 172.172 650.688 171.984 646.375 171.609L642.719 289.875C649.656 288.75 656.547 288 663.391 287.625L665.641 171.891C664.609 172.078 663.625 172.172 662.688 172.172ZM640.047 156C645.109 156.75 653.5 157.125 665.219 157.125C676.938 157.125 688.047 155.812 698.547 153.188C700.703 153.188 702.484 153.984 703.891 155.578C705.297 157.078 706 158.719 706 160.5C706 162.281 705.438 163.875 704.312 165.281C703.281 166.688 701.453 167.672 698.828 168.234C696.297 168.703 693.391 169.172 690.109 169.641C686.828 170.016 683.594 170.438 680.406 170.906L678.156 287.344C686.312 287.344 692.219 287.578 695.875 288.047C701.875 288.797 704.875 291.328 704.875 295.641C704.875 297.984 704.078 299.812 702.484 301.125C700.984 302.531 699.391 303.234 697.703 303.234H696.859C676.141 300.703 656.078 301.641 636.672 306.047H635.125C633.156 306.047 631.422 305.297 629.922 303.797C628.422 302.391 627.672 300.75 627.672 298.875V298.594L628.516 272.859C616.422 294.984 600.766 306.047 581.547 306.047C564.953 306.047 552.531 298.594 544.281 283.688C537.719 271.594 534.438 257.344 534.438 240.938C534.438 215.531 539.219 192.328 548.781 171.328L523.469 170.625C521.406 170.438 519.672 169.688 518.266 168.375C516.953 166.969 516.297 165.281 516.297 163.312C516.297 161.344 517 159.656 518.406 158.25C519.812 156.75 521.594 156 523.75 156L560.875 156.844C562.938 157.125 564.625 157.969 565.938 159.375C567.344 160.688 568.047 162 568.047 163.312C568.047 165 567.672 166.594 566.922 168.094C560.641 174.375 555.438 190.875 551.312 217.594C549.812 227.344 549.062 235.172 549.062 241.078C549.062 246.984 549.531 252.938 550.469 258.938C551.5 264.844 553.234 270.188 555.672 274.969C561.203 285.938 569.734 291.422 581.266 291.422C592.797 291.422 602.875 285 611.5 272.156C620.125 259.5 626.312 241.922 630.062 219.422L631.75 162.891C631.75 160.828 632.547 159.188 634.141 157.969C635.734 156.656 637.422 156 639.203 156H640.047ZM787.422 291.984C781.047 286.453 777.859 279.516 777.859 271.172V109.875L757.75 115.641V254.438C757.75 274.875 764.031 286.875 776.594 290.438C780.156 291.375 783.766 291.891 787.422 291.984ZM792.625 157.969C804.25 157.594 815.922 156.938 827.641 156H828.203C830.266 156 832 156.75 833.406 158.25C834.812 159.656 835.516 161.297 835.516 163.172C835.516 165.047 834.859 166.734 833.547 168.234C832.328 169.641 830.781 170.438 828.906 170.625C814.562 171.75 802.469 172.453 792.625 172.734V271.172C792.625 276.797 795.484 280.781 801.203 283.125C802.797 283.781 804.625 284.109 806.688 284.109C808.844 284.109 810.719 283.453 812.312 282.141C814 280.734 815.406 279 816.531 276.938C818.031 274.219 819.25 271.031 820.188 267.375C821.594 261.656 824.266 258.797 828.203 258.797C830.359 258.797 832.094 259.641 833.406 261.328C834.812 262.922 835.516 264.562 835.516 266.25V267.797C832.797 280.266 827.453 289.922 819.484 296.766C811.516 303.516 801.672 306.891 789.953 306.891C768.766 306.891 754.469 298.219 747.062 280.875C744.156 274.125 742.703 265.312 742.703 254.438V172.453C738.484 172.172 734.219 171.891 729.906 171.609C725.688 171.328 722.031 171 718.938 170.625C713.312 170.062 710.5 167.578 710.5 163.172C710.5 161.016 711.297 159.281 712.891 157.969C714.578 156.656 716.266 156 717.953 156H718.516L742.703 157.688V109.875C742.703 108.281 743.219 106.828 744.25 105.516C745.281 104.109 746.594 103.172 748.188 102.703L783.344 93.2812C783.719 93 784.656 92.8594 786.156 92.8594C787.75 92.8594 789.203 93.6563 790.516 95.25C791.922 96.8437 792.625 98.5781 792.625 100.453V157.969ZM991.188 173.297C974.406 179.766 963.344 191.906 958 209.719C956.125 215.906 955.188 222.891 955.188 230.672C955.188 238.453 956.078 245.438 957.859 251.625C959.641 257.812 962.031 263.25 965.031 267.938C970.844 276.656 978.906 283.125 989.219 287.344C979.844 274.312 975.156 255.188 975.156 229.969C975.156 204.75 980.5 185.859 991.188 173.297ZM1062.77 272.016C1067.17 266.391 1070.5 259.969 1072.75 252.75C1075.09 245.531 1076.27 238.875 1076.27 232.781C1076.27 226.688 1075.75 221.297 1074.72 216.609C1073.69 211.922 1072.19 207.375 1070.22 202.969C1068.25 198.562 1065.86 194.438 1063.05 190.594C1060.23 186.75 1057.09 183.375 1053.62 180.469C1046.03 174.375 1037.73 171.328 1028.73 171.328C1010.55 171.328 998.688 182.016 993.156 203.391C991.094 211.266 990.062 218.578 990.062 225.328C990.062 231.984 990.25 237.656 990.625 242.344C991 246.938 991.656 251.531 992.594 256.125C993.531 260.625 994.797 264.984 996.391 269.203C997.984 273.422 1000.05 277.125 1002.58 280.312C1008.11 287.25 1015.19 290.719 1023.81 290.719C1032.53 290.719 1040.08 289.031 1046.45 285.656C1052.92 282.188 1058.36 277.641 1062.77 272.016ZM1090.89 231.234C1090.89 242.016 1088.88 252.094 1084.84 261.469C1080.81 270.844 1075.38 278.906 1068.53 285.656C1054 299.812 1036.38 306.891 1015.66 306.891C992.875 306.891 974.641 299.953 960.953 286.078C947.359 272.297 940.562 253.781 940.562 230.531C940.562 208.5 947.781 190.219 962.219 175.688C976.469 161.25 994.281 154.031 1015.66 154.031C1037.41 154.031 1055.5 161.625 1069.94 176.812C1083.91 191.438 1090.89 209.578 1090.89 231.234ZM1191.86 100.453C1179.48 103.453 1169.97 110.25 1163.31 120.844C1157.41 130.125 1154.45 141.469 1154.45 154.875V281.578C1156.14 281.391 1157.88 281.297 1159.66 281.297C1162.94 281.297 1165.8 281.297 1168.23 281.297C1170.67 281.297 1172.69 281.391 1174.28 281.578V159.234C1174.28 131.766 1180.14 112.172 1191.86 100.453ZM1210.84 300.562C1195.38 297.469 1180.09 295.922 1165 295.922C1150 295.922 1134.77 297.469 1119.3 300.562C1117.14 300.562 1115.36 299.812 1113.95 298.312C1112.55 296.719 1111.84 295.031 1111.84 293.25C1111.84 288.938 1113.86 286.5 1117.89 285.938C1125.77 284.25 1133.03 283.172 1139.69 282.703V174.703C1131.81 174.703 1125.3 174.562 1120.14 174.281C1114.98 174 1111.7 173.156 1110.3 171.75C1108.98 170.344 1108.33 168.656 1108.33 166.688C1108.33 164.625 1109.08 162.891 1110.58 161.484C1112.08 159.984 1113.81 159.234 1115.78 159.234H1116.06L1139.69 160.078V154.875C1139.69 133.875 1145.41 117 1156.84 104.25C1168.56 91.125 1184.36 84.5625 1204.23 84.5625C1221.02 84.5625 1234.7 89.9531 1245.3 100.734C1255.14 110.766 1259.88 122.578 1259.5 136.172V136.453C1259.5 138.422 1258.75 140.109 1257.25 141.516C1255.84 142.922 1254.11 143.625 1252.05 143.625C1249.98 143.625 1248.25 142.922 1246.84 141.516C1245.53 140.109 1244.73 138 1244.45 135.188C1244.27 132.281 1243.56 128.906 1242.34 125.062C1241.22 121.219 1239.58 117.75 1237.42 114.656C1232.55 107.625 1226.27 104.109 1218.58 104.109C1204.14 104.109 1194.95 115.031 1191.02 136.875C1189.8 143.625 1189.19 151.078 1189.19 159.234V160.078L1212.81 159.234H1213.09C1215.16 159.234 1216.89 159.938 1218.3 161.344C1219.7 162.656 1220.45 164.391 1220.55 166.547C1220.64 168.609 1219.98 170.344 1218.58 171.75C1217.17 173.156 1213.94 174 1208.88 174.281C1203.81 174.562 1197.25 174.703 1189.19 174.703V282.422C1197.72 283.453 1204.14 284.391 1208.45 285.234C1212.77 285.984 1215.44 287.062 1216.47 288.469C1217.5 289.781 1218.02 291.516 1218.02 293.672C1218.02 295.734 1217.22 297.422 1215.62 298.734C1214.03 299.953 1212.44 300.562 1210.84 300.562ZM1386.06 284.109C1370.31 264.328 1362.44 235.828 1362.44 198.609C1362.44 163.078 1371.48 135.609 1389.58 116.203C1358.45 132.609 1342.89 161.812 1342.89 203.812C1342.89 233.156 1350.91 255.375 1366.94 270.469C1372.38 275.531 1378.75 280.078 1386.06 284.109ZM1435.56 90.8906C1461.91 90.8906 1482.67 99.9375 1497.86 118.031L1505.59 95.8125C1506.81 92.5313 1508.83 90.8906 1511.64 90.8906C1514.55 90.8906 1516.66 91.7344 1517.97 93.4219C1519.28 95.0156 1519.94 96.2812 1519.94 97.2188C1519.94 98.625 1519.75 99.7969 1519.38 100.734L1497.02 166.125C1495.98 169.312 1494.02 170.906 1491.11 170.906C1488.2 170.906 1486.05 170.156 1484.64 168.656C1483.23 167.062 1482.53 165.75 1482.53 164.719C1482.53 163.312 1482.72 162.141 1483.09 161.203L1492.09 134.906C1484.03 122.437 1473.34 113.766 1460.03 108.891C1455.62 107.297 1451.22 106.5 1446.81 106.5C1425.06 106.5 1407.91 115.5 1395.34 133.5C1383.44 150.562 1377.48 172.266 1377.48 198.609C1377.48 220.453 1381.19 240.422 1388.59 258.516C1394.22 272.578 1402.09 282.562 1412.22 288.469C1417.47 291.562 1424.64 293.109 1433.73 293.109C1442.92 293.109 1451.64 291.703 1459.89 288.891C1468.14 286.078 1474.94 282.375 1480.28 277.781C1490.59 268.781 1495.75 257.484 1495.75 243.891C1495.75 234.328 1493.22 226.312 1488.16 219.844C1484.88 215.531 1481.08 212.391 1476.77 210.422C1464.95 212.016 1455.16 214.688 1447.38 218.438C1445.97 219.094 1444.98 219.609 1444.42 219.984C1443.86 220.359 1442.69 220.547 1440.91 220.547C1439.22 220.547 1437.67 219.797 1436.27 218.297C1434.86 216.703 1434.16 214.781 1434.16 212.531C1434.16 210.188 1435.42 208.219 1437.95 206.625C1438.23 206.531 1439.73 205.828 1442.45 204.516C1445.17 203.203 1448.97 201.75 1453.84 200.156C1466.59 196.219 1479.2 194.25 1491.67 194.25C1504.23 194.25 1516.28 195.234 1527.81 197.203C1529.5 197.484 1530.91 198.328 1532.03 199.734C1533.25 201.047 1533.86 202.781 1533.86 204.938C1533.86 207 1533.02 208.688 1531.33 210C1529.64 211.219 1528.23 211.828 1527.11 211.828C1525.98 211.828 1524.16 211.594 1521.62 211.125C1517.41 210.188 1509.67 209.484 1498.42 209.016C1506.67 218.578 1510.8 230.297 1510.8 244.172C1510.8 265.172 1501.94 281.438 1484.22 292.969C1468.56 303 1450.52 308.016 1430.08 308.016C1398.3 307.078 1373.36 297.469 1355.27 279.188C1337.17 260.906 1328.12 235.781 1328.12 203.812C1328.12 177 1333.75 154.594 1345 136.594C1354.56 121.031 1368.16 109.219 1385.78 101.156C1400.88 94.3125 1417.47 90.8906 1435.56 90.8906ZM1609.66 177.938C1606.09 178.5 1599.62 178.781 1590.25 178.781H1589.12V282.141C1590.91 281.953 1592.64 281.859 1594.33 281.859C1594.33 281.859 1599.44 281.859 1609.66 281.859V177.938ZM1688.27 209.156C1688.83 207.938 1689.11 206.25 1689.11 204.094C1689.11 201.938 1688.08 199.875 1686.02 197.906C1684.05 195.844 1681.61 194.812 1678.7 194.812C1675.8 194.812 1673.31 195.844 1671.25 197.906C1669.28 199.875 1668.3 201.938 1668.3 204.094C1668.3 206.25 1668.58 207.938 1669.14 209.156C1669.7 210.375 1670.45 211.5 1671.39 212.531C1673.36 214.594 1675.8 215.625 1678.7 215.625C1683.11 215.625 1686.3 213.469 1688.27 209.156ZM1624.56 179.344C1633.94 166.312 1646.31 159.797 1661.69 159.797C1674.44 160.172 1684.75 164.062 1692.62 171.469C1700.69 178.875 1704.72 188.578 1704.72 200.578C1704.72 208.547 1702.38 215.438 1697.69 221.25C1692.81 227.25 1686.48 230.25 1678.7 230.25C1671.77 230.25 1665.86 227.812 1660.98 222.938C1656.11 218.062 1653.67 212.156 1653.67 205.219C1653.67 198.375 1656.11 192.469 1660.98 187.5C1665.86 182.438 1671.77 179.906 1678.7 179.906C1679.17 179.906 1679.59 179.953 1679.97 180.047C1680.44 180.141 1680.91 180.188 1681.38 180.188C1676.41 176.344 1670.55 174.422 1663.8 174.422C1657.05 174.422 1651.7 175.547 1647.77 177.797C1643.83 179.953 1640.45 182.719 1637.64 186.094C1634.92 189.375 1632.72 192.984 1631.03 196.922C1629.34 200.766 1628.03 204.375 1627.09 207.75C1625.41 213.469 1624.56 217.828 1624.56 220.828L1624.28 283.266C1627.56 283.547 1630.84 283.969 1634.12 284.531C1637.5 285.094 1640.5 285.656 1643.12 286.219C1648 287.156 1650.44 289.641 1650.44 293.672C1650.44 295.734 1649.64 297.469 1648.05 298.875C1646.45 300.188 1644.77 300.844 1642.98 300.844H1641.58C1625.92 297.938 1611.91 296.484 1599.53 296.484C1587.34 296.484 1573.42 297.938 1557.77 300.844H1556.36C1554.2 300.844 1552.47 300.141 1551.16 298.734C1549.84 297.234 1549.19 295.594 1549.19 293.812C1549.19 289.781 1551.11 287.25 1554.95 286.219C1558.23 285.656 1561.52 285.094 1564.8 284.531C1568.08 283.969 1571.31 283.547 1574.5 283.266V178.5C1562.12 177.938 1554.91 177.234 1552.84 176.391C1550.97 176.203 1549.42 175.453 1548.2 174.141C1547.08 172.734 1546.52 171 1546.52 168.938C1546.52 166.781 1547.31 165.047 1548.91 163.734C1550.59 162.422 1552.28 161.766 1553.97 161.766H1554.95C1555.61 162.422 1560.58 162.984 1569.86 163.453C1579.23 163.828 1586.12 164.016 1590.53 164.016C1600.94 164.016 1607.78 163.641 1611.06 162.891C1614.34 162.141 1616.69 161.766 1618.09 161.766C1619.59 161.766 1621.05 162.562 1622.45 164.156C1623.86 165.656 1624.56 167.344 1624.56 169.219V179.344ZM1817.22 250.781C1816.84 247.594 1816.66 244.219 1816.66 240.656H1811.45C1796.08 240.656 1780.98 243.469 1766.17 249.094C1747.23 256.219 1737.77 266.391 1737.77 279.609C1737.77 284.484 1739.97 288.281 1744.38 291C1748.03 293.156 1752.81 294.234 1758.72 294.234C1764.62 294.234 1770.53 292.969 1776.44 290.438C1782.44 287.812 1787.97 284.438 1793.03 280.312C1802.03 272.812 1810.09 262.969 1817.22 250.781ZM1851.11 285.656C1851.39 282.844 1851.53 277.219 1851.53 268.781C1851.53 260.344 1851.34 252.328 1850.97 244.734C1850.69 237.047 1849.98 229.641 1848.86 222.516C1847.73 215.391 1846.05 208.688 1843.8 202.406C1841.55 196.125 1838.5 190.688 1834.66 186.094C1826.12 175.969 1814.27 170.906 1799.08 170.906C1798.8 170.906 1798.56 171 1798.38 171.188C1798.19 171.281 1797.95 171.328 1797.67 171.328H1798.23C1813.33 179.484 1823.12 193.031 1827.62 211.969C1830.16 222.375 1831.52 232.266 1831.7 241.641C1831.98 250.922 1832.12 258.234 1832.12 263.578C1832.12 272.016 1831.75 280.5 1831 289.031C1837.75 287.625 1844.45 286.5 1851.11 285.656ZM1874.73 284.109L1884.86 284.391C1886.92 284.578 1888.56 285.375 1889.78 286.781C1891.09 288.188 1891.75 289.922 1891.75 291.984C1891.75 293.953 1891.05 295.688 1889.64 297.188C1888.33 298.688 1886.64 299.438 1884.58 299.438H1884.02C1882.42 299.25 1880.78 299.156 1879.09 299.156H1874.17C1857.02 299.156 1840.42 301.453 1824.39 306.047L1822.42 306.328C1820.27 306.328 1818.48 305.484 1817.08 303.797C1815.77 302.203 1815.11 300.562 1815.11 298.875V297.75C1815.11 297.562 1815.34 295.688 1815.81 292.125C1816.28 288.469 1816.75 283.406 1817.22 276.938C1798.19 298.219 1778.41 308.859 1757.88 308.859C1748.41 308.859 1740.34 306.234 1733.69 300.984C1726.56 295.453 1723 288.75 1723 280.875C1723 273 1724.5 266.391 1727.5 261.047C1730.59 255.703 1734.62 251.062 1739.59 247.125C1744.56 243.094 1750.19 239.766 1756.47 237.141C1762.84 234.422 1769.31 232.219 1775.88 230.531C1788.06 227.531 1799.92 226.031 1811.45 226.031H1814.83C1814.83 214.125 1811.03 203.719 1803.44 194.812C1795.38 185.438 1785.58 180.75 1774.05 180.75C1765.42 180.75 1757.36 185.156 1749.86 193.969C1742.55 202.5 1738.89 211.453 1738.89 220.828C1738.89 222.703 1738.09 224.297 1736.5 225.609C1735 226.828 1733.27 227.438 1731.3 227.438C1729.33 227.438 1727.59 226.688 1726.09 225.188C1724.59 223.594 1723.84 221.203 1723.84 218.016C1723.84 214.828 1724.64 210.797 1726.23 205.922C1727.83 200.953 1730.12 196.125 1733.12 191.438C1736.22 186.656 1739.92 182.156 1744.23 177.938C1748.64 173.719 1753.66 169.969 1759.28 166.688C1771.28 159.75 1783.47 156.281 1795.84 156.281C1808.31 156.281 1818.25 157.922 1825.66 161.203C1833.16 164.484 1839.39 168.938 1844.36 174.562C1849.42 180.188 1853.41 186.703 1856.31 194.109C1859.22 201.516 1861.42 209.344 1862.92 217.594C1865.27 230.531 1866.44 247.078 1866.44 267.234L1866.16 284.391L1874.73 284.109ZM1908.06 332.203C1908.06 329.297 1907.03 326.859 1904.97 324.891C1903 322.922 1900.56 321.938 1897.66 321.938C1894.75 321.938 1892.27 322.922 1890.2 324.891C1888.23 326.859 1887.25 329.297 1887.25 332.203C1887.25 335.109 1888.23 337.547 1890.2 339.516C1892.27 341.578 1894.75 342.609 1897.66 342.609C1900.56 342.609 1903 341.578 1904.97 339.516C1907.03 337.547 1908.06 335.109 1908.06 332.203ZM2027.31 167.25C2025.44 167.438 2023.56 167.531 2021.69 167.531H2006.5C1997.5 206.625 1989.48 237.703 1982.45 260.766C1975.52 283.828 1970.97 298.359 1968.81 304.359C1958.5 332.578 1947.34 352.828 1935.34 365.109C1953.53 358.641 1968.39 344.438 1979.92 322.5C1985.08 312.75 1988.92 304.031 1991.45 296.344C1993.98 288.562 1996.14 281.719 1997.92 275.812C1999.7 269.906 2001.53 263.625 2003.41 256.969C2005.38 250.219 2007.3 243.375 2009.17 236.438C2011.05 229.5 2012.88 222.656 2014.66 215.906C2016.53 209.062 2018.22 202.641 2019.72 196.641C2021.31 190.547 2022.77 184.969 2024.08 179.906C2025.39 174.844 2026.47 170.625 2027.31 167.25ZM1981.47 150.797C1991.59 152.109 2003.22 152.766 2016.34 152.766C2029.47 152.766 2041.19 152.109 2051.5 150.797H2052.34C2054.5 150.797 2056.28 151.594 2057.69 153.188C2059.09 154.688 2059.8 156.375 2059.8 158.25C2059.8 160.125 2059.14 161.766 2057.83 163.172C2056.61 164.578 2055.06 165.422 2053.19 165.703C2051.41 165.891 2049.62 166.078 2047.84 166.266C2046.16 166.359 2044.38 166.5 2042.5 166.688C2041.84 169.312 2040.91 173.016 2039.69 177.797C2038.56 182.484 2037.2 187.875 2035.61 193.969C2034.02 200.062 2032.28 206.672 2030.41 213.797C2028.62 220.922 2026.75 228.188 2024.78 235.594C2022.81 243 2020.8 250.359 2018.73 257.672C2016.67 264.984 2014.66 271.875 2012.69 278.344C2008.56 292.406 2004.86 303.375 2001.58 311.25C1998.39 319.125 1994.12 327.422 1988.78 336.141C1983.53 344.953 1977.44 352.781 1970.5 359.625C1955.22 374.812 1938.16 382.406 1919.31 382.406C1905.62 382.406 1894.28 378.938 1885.28 372C1875.34 364.312 1870.38 354.234 1870.38 341.766C1870.38 332.484 1872.72 324.562 1877.41 318C1882.56 310.781 1889.31 307.172 1897.66 307.172C1904.59 307.172 1910.5 309.609 1915.38 314.484C1920.25 319.359 1922.69 325.266 1922.69 332.203C1922.69 339.047 1920.25 345 1915.38 350.062C1910.59 354.938 1904.69 357.375 1897.66 357.375C1894.84 357.375 1891.98 356.859 1889.08 355.828C1893.86 361.828 1898.83 364.828 1903.98 364.828C1909.23 364.828 1913.73 363.562 1917.48 361.031C1921.23 358.594 1924.75 355.406 1928.03 351.469C1931.41 347.531 1934.5 343.125 1937.31 338.25C1940.12 333.375 1942.66 328.5 1944.91 323.625C1950.16 312.562 1953.67 304.078 1955.45 298.172C1957.33 292.172 1958.69 287.906 1959.53 285.375C1941.81 261.188 1928.78 237.047 1920.44 212.953C1915 197.484 1912 183.188 1911.44 170.062C1896.06 170.062 1887.34 168.938 1885.28 166.688C1883.97 165.281 1883.31 163.594 1883.31 161.625C1883.31 159.656 1884.06 157.969 1885.56 156.562C1887.16 155.062 1888.89 154.312 1890.77 154.312H1891.61C1896.86 155.062 1902.95 155.438 1909.89 155.438C1922.73 155.438 1932.02 154.969 1937.73 154.031C1943.45 153 1946.92 152.484 1948.14 152.484C1949.45 152.484 1950.81 153.281 1952.22 154.875C1953.72 156.469 1954.47 158.156 1954.47 159.938C1954.47 161.719 1953.86 163.312 1952.64 164.719C1951.52 166.125 1949.5 167.062 1946.59 167.531C1939.75 168.469 1932.95 169.219 1926.2 169.781C1926.67 187.312 1933 208.641 1945.19 233.766C1950.16 244.172 1956.77 255.422 1965.02 267.516C1974.02 236.859 1982.88 203.25 1991.59 166.688C1989.72 166.5 1987.75 166.359 1985.69 166.266C1983.72 166.078 1981.75 165.891 1979.78 165.703C1977.91 165.422 1976.31 164.578 1975 163.172C1973.78 161.766 1973.17 160.031 1973.17 157.969C1973.17 155.906 1973.97 154.219 1975.56 152.906C1977.16 151.5 1978.84 150.797 1980.62 150.797H1981.47ZM2194.8 268.922C2196.11 265.453 2196.77 262.125 2196.77 258.938C2196.77 255.75 2195.97 252.703 2194.38 249.797C2192.88 246.891 2190.86 244.406 2188.33 242.344C2185.8 240.188 2182.89 238.406 2179.61 237C2176.33 235.5 2172.95 234.234 2169.48 233.203C2166.02 232.172 2162.59 231.328 2159.22 230.672C2155.84 229.922 2152.52 229.172 2149.23 228.422C2146.05 227.672 2142.39 226.875 2138.27 226.031C2134.23 225.188 2130.16 224.25 2126.03 223.219C2122 222.094 2118.06 220.734 2114.22 219.141C2110.47 217.547 2107.05 215.625 2103.95 213.375C2097.2 208.594 2093.03 202.312 2091.44 194.531C2089.09 199.594 2087.92 204.609 2087.92 209.578C2087.92 214.547 2088.77 218.719 2090.45 222.094C2092.23 225.469 2094.53 228.422 2097.34 230.953C2100.25 233.484 2103.53 235.641 2107.19 237.422C2110.84 239.109 2114.64 240.562 2118.58 241.781C2125.52 243.75 2131.56 245.016 2136.72 245.578C2141.97 246.141 2146.28 246.703 2149.66 247.266C2153.12 247.734 2156.73 248.391 2160.48 249.234C2164.23 250.078 2167.98 251.109 2171.73 252.328C2175.48 253.453 2178.95 254.812 2182.14 256.406C2189.17 259.969 2193.39 264.141 2194.8 268.922ZM2178.62 186.234C2166.53 176.672 2151.06 171.891 2132.22 171.891C2120.88 171.891 2112.81 174.984 2108.03 181.172C2106.34 183.422 2105.5 186.094 2105.5 189.188C2105.5 192.281 2106.44 194.953 2108.31 197.203C2110.19 199.359 2112.58 201.281 2115.48 202.969C2118.39 204.656 2121.62 206.109 2125.19 207.328C2128.84 208.547 2132.41 209.578 2135.88 210.422C2139.44 211.266 2142.72 211.969 2145.72 212.531C2148.81 213.094 2152.42 213.797 2156.55 214.641C2160.77 215.484 2166.3 216.984 2173.14 219.141C2180.08 221.203 2186.41 223.969 2192.12 227.438C2205.06 235.5 2211.53 246.328 2211.53 259.922C2211.53 274.922 2204.41 286.969 2190.16 296.062C2177.41 304.219 2163.67 308.297 2148.95 308.297C2124.3 308.297 2103.58 301.125 2086.8 286.781V291.562C2086.8 293.062 2086.89 294.516 2087.08 295.922V296.484C2087.08 298.359 2086.42 300.047 2085.11 301.547C2083.89 303.047 2082.25 303.797 2080.19 303.797C2078.22 303.797 2076.44 303.141 2074.84 301.828C2073.34 300.609 2072.5 299.062 2072.31 297.188C2072.12 295.312 2072.03 293.438 2072.03 291.562V285.656C2072.03 278.156 2072.27 271.547 2072.73 265.828C2073.2 260.016 2073.48 256.594 2073.58 255.562C2073.77 254.531 2074.52 253.406 2075.83 252.188C2077.23 250.875 2078.97 250.219 2081.03 250.219C2083.19 250.219 2084.92 250.969 2086.23 252.469C2087.55 253.969 2088.2 255.609 2088.2 257.391V258.234C2087.92 260.766 2087.64 263.766 2087.36 267.234C2103.67 284.672 2124.2 293.391 2148.95 293.391C2160.02 293.391 2168.97 291.562 2175.81 287.906C2180.41 285.469 2182.7 282.375 2182.7 278.625C2182.7 270.75 2170.09 264.984 2144.88 261.328C2142.34 260.953 2138.73 260.531 2134.05 260.062C2129.45 259.5 2123.22 258.094 2115.34 255.844C2107.56 253.5 2100.53 250.312 2094.25 246.281C2080.28 237.281 2073.3 225.328 2073.3 210.422C2073.3 194.578 2079.44 181.547 2091.72 171.328C2102.97 161.859 2116.47 157.125 2132.22 157.125C2152.56 157.125 2169.86 162.047 2184.11 171.891C2187.67 163.078 2190.72 158.062 2193.25 156.844C2194.47 156.281 2195.88 156 2197.47 156C2199.16 156 2200.7 156.75 2202.11 158.25C2203.52 159.656 2204.22 161.203 2204.22 162.891C2204.22 164.578 2203.14 167.25 2200.98 170.906C2194.8 181.5 2190.91 193.219 2189.31 206.062C2189.03 207.844 2188.19 209.344 2186.78 210.562C2185.38 211.781 2183.69 212.391 2181.72 212.391C2179.75 212.391 2178.06 211.641 2176.66 210.141C2175.25 208.547 2174.55 206.812 2174.55 204.938V203.812C2175.58 198 2176.94 192.141 2178.62 186.234ZM2288.17 289.875C2275.7 276.844 2269.47 258.516 2269.47 234.891C2269.47 220.078 2271.91 205.875 2276.78 192.281C2281.56 179.25 2287 170.719 2293.09 166.688C2263.28 174 2248.38 196.172 2248.38 233.203C2248.38 255.047 2255.97 271.266 2271.16 281.859C2276.12 285.328 2281.8 288 2288.17 289.875ZM2370.3 206.625C2370.02 208.5 2369.12 210.047 2367.62 211.266C2366.22 212.484 2364.58 213.094 2362.7 213.094C2360.83 213.094 2359.19 212.438 2357.78 211.125C2356.47 209.812 2355.77 207.656 2355.67 204.656C2355.58 201.562 2354.69 197.812 2353 193.406C2351.31 189 2349.02 184.969 2346.11 181.312C2339.36 172.875 2332.05 168.656 2324.17 168.656C2314.52 168.656 2306.36 172.688 2299.7 180.75C2291.73 190.406 2286.81 204.234 2284.94 222.234C2284.38 227.016 2284.09 232.031 2284.09 237.281C2284.09 242.438 2284.8 248.297 2286.2 254.859C2287.7 261.422 2289.95 267.281 2292.95 272.438C2299.7 284.25 2309.12 290.156 2321.22 290.156C2330.22 290.156 2338.47 286.312 2345.97 278.625C2352.81 271.594 2357.36 263.766 2359.61 255.141C2360.64 251.109 2363.03 249.094 2366.78 249.094C2368.84 249.094 2370.58 249.891 2371.98 251.484C2373.48 252.984 2374.23 254.344 2374.23 255.562C2374.23 256.781 2374 258.281 2373.53 260.062C2373.16 261.75 2372.17 264.422 2370.58 268.078C2368.98 271.734 2366.88 275.391 2364.25 279.047C2361.72 282.703 2358.62 286.266 2354.97 289.734C2351.31 293.109 2347.14 296.109 2342.45 298.734C2332.05 304.547 2320.98 307.453 2309.27 307.453C2297.64 307.453 2287.28 305.625 2278.19 301.969C2269.09 298.406 2261.27 293.344 2254.7 286.781C2240.73 273 2233.75 255.141 2233.75 233.203C2233.75 208.828 2240.12 189.094 2252.88 174C2266.19 158.156 2284.38 150.234 2307.44 150.234C2318.12 150.234 2328.06 152.391 2337.25 156.703C2346.44 160.922 2353.98 167.297 2359.89 175.828L2364.53 147.141C2364.81 145.359 2365.61 143.906 2366.92 142.781C2368.33 141.656 2370.06 141.094 2372.12 141.094C2374.19 141.094 2375.88 141.891 2377.19 143.484C2378.5 145.078 2379.16 146.672 2379.16 148.266V149.391L2370.3 206.625ZM2494.75 250.781C2494.38 247.594 2494.19 244.219 2494.19 240.656H2488.98C2473.61 240.656 2458.52 243.469 2443.7 249.094C2424.77 256.219 2415.3 266.391 2415.3 279.609C2415.3 284.484 2417.5 288.281 2421.91 291C2425.56 293.156 2430.34 294.234 2436.25 294.234C2442.16 294.234 2448.06 292.969 2453.97 290.438C2459.97 287.812 2465.5 284.438 2470.56 280.312C2479.56 272.812 2487.62 262.969 2494.75 250.781ZM2528.64 285.656C2528.92 282.844 2529.06 277.219 2529.06 268.781C2529.06 260.344 2528.88 252.328 2528.5 244.734C2528.22 237.047 2527.52 229.641 2526.39 222.516C2525.27 215.391 2523.58 208.688 2521.33 202.406C2519.08 196.125 2516.03 190.688 2512.19 186.094C2503.66 175.969 2491.8 170.906 2476.61 170.906C2476.33 170.906 2476.09 171 2475.91 171.188C2475.72 171.281 2475.48 171.328 2475.2 171.328H2475.77C2490.86 179.484 2500.66 193.031 2505.16 211.969C2507.69 222.375 2509.05 232.266 2509.23 241.641C2509.52 250.922 2509.66 258.234 2509.66 263.578C2509.66 272.016 2509.28 280.5 2508.53 289.031C2515.28 287.625 2521.98 286.5 2528.64 285.656ZM2552.27 284.109L2562.39 284.391C2564.45 284.578 2566.09 285.375 2567.31 286.781C2568.62 288.188 2569.28 289.922 2569.28 291.984C2569.28 293.953 2568.58 295.688 2567.17 297.188C2565.86 298.688 2564.17 299.438 2562.11 299.438H2561.55C2559.95 299.25 2558.31 299.156 2556.62 299.156H2551.7C2534.55 299.156 2517.95 301.453 2501.92 306.047L2499.95 306.328C2497.8 306.328 2496.02 305.484 2494.61 303.797C2493.3 302.203 2492.64 300.562 2492.64 298.875V297.75C2492.64 297.562 2492.88 295.688 2493.34 292.125C2493.81 288.469 2494.28 283.406 2494.75 276.938C2475.72 298.219 2455.94 308.859 2435.41 308.859C2425.94 308.859 2417.88 306.234 2411.22 300.984C2404.09 295.453 2400.53 288.75 2400.53 280.875C2400.53 273 2402.03 266.391 2405.03 261.047C2408.12 255.703 2412.16 251.062 2417.12 247.125C2422.09 243.094 2427.72 239.766 2434 237.141C2440.38 234.422 2446.84 232.219 2453.41 230.531C2465.59 227.531 2477.45 226.031 2488.98 226.031H2492.36C2492.36 214.125 2488.56 203.719 2480.97 194.812C2472.91 185.438 2463.11 180.75 2451.58 180.75C2442.95 180.75 2434.89 185.156 2427.39 193.969C2420.08 202.5 2416.42 211.453 2416.42 220.828C2416.42 222.703 2415.62 224.297 2414.03 225.609C2412.53 226.828 2410.8 227.438 2408.83 227.438C2406.86 227.438 2405.12 226.688 2403.62 225.188C2402.12 223.594 2401.38 221.203 2401.38 218.016C2401.38 214.828 2402.17 210.797 2403.77 205.922C2405.36 200.953 2407.66 196.125 2410.66 191.438C2413.75 186.656 2417.45 182.156 2421.77 177.938C2426.17 173.719 2431.19 169.969 2436.81 166.688C2448.81 159.75 2461 156.281 2473.38 156.281C2485.84 156.281 2495.78 157.922 2503.19 161.203C2510.69 164.484 2516.92 168.938 2521.89 174.562C2526.95 180.188 2530.94 186.703 2533.84 194.109C2536.75 201.516 2538.95 209.344 2540.45 217.594C2542.8 230.531 2543.97 247.078 2543.97 267.234L2543.69 284.391L2552.27 284.109ZM2626.94 113.109C2620.84 113.672 2614.42 113.953 2607.67 113.953H2606.55V283.828H2626.94V113.109ZM2591.92 113.672L2574.62 111.703C2572.75 111.422 2571.2 110.578 2569.98 109.172C2568.86 107.766 2568.3 106.031 2568.3 103.969C2568.3 101.813 2569.14 100.125 2570.83 98.9062C2572.52 97.5938 2574.16 96.9375 2575.75 96.9375H2576.59C2576.69 96.9375 2577.53 97.0781 2579.12 97.3594C2580.72 97.5469 2582.88 97.7812 2585.59 98.0625C2592.34 98.9062 2599.8 99.3281 2607.95 99.3281C2617.98 99.3281 2624.73 98.9531 2628.2 98.2031C2631.67 97.3594 2634.11 96.9375 2635.52 96.9375C2637.02 96.9375 2638.47 97.7344 2639.88 99.3281C2641.28 100.828 2641.98 102.516 2641.98 104.391L2641.7 285.375C2644.33 285.656 2646.39 285.938 2647.89 286.219C2649.48 286.406 2650.8 286.594 2651.83 286.781C2652.95 286.875 2654.36 287.109 2656.05 287.484C2657.83 287.859 2659.28 288.703 2660.41 290.016C2661.53 291.328 2662.09 292.969 2662.09 294.938C2662.09 296.812 2661.3 298.453 2659.7 299.859C2658.2 301.266 2656.52 301.969 2654.64 301.969H2653.23C2627.27 297.375 2601.62 297.469 2576.31 302.25H2574.91C2572.56 302.25 2570.78 301.5 2569.56 300C2568.34 298.594 2567.73 296.953 2567.73 295.078C2567.73 291.141 2569.66 288.656 2573.5 287.625C2579.12 286.688 2585.27 285.938 2591.92 285.375V113.672ZM2730.86 174.141C2706.2 183.047 2693.88 201.75 2693.88 230.25C2693.88 248.156 2700.06 263.156 2712.44 275.25C2716.28 279 2720.69 282.141 2725.66 284.672C2717.59 272.672 2713.56 256.266 2713.56 235.453C2713.56 220.734 2714.64 209.766 2716.8 202.547C2720.17 191.109 2724.86 181.641 2730.86 174.141ZM2728.47 229.406C2738.97 232.688 2751.02 234.328 2764.61 234.328C2778.2 234.328 2791.42 231.469 2804.27 225.75V223.359C2804.27 200.672 2797 185.016 2782.47 176.391C2777.41 173.391 2771.31 171.375 2764.19 170.344C2741.31 172.969 2729.41 192.656 2728.47 229.406ZM2818.89 223.078L2818.61 231.234C2817.67 239.016 2805.3 244.547 2781.48 247.828C2773.89 248.859 2765.83 249.375 2757.3 249.375C2748.86 249.375 2739.34 247.922 2728.75 245.016C2730.81 266.297 2737.94 280.688 2750.12 288.188C2754.62 290.906 2759.03 292.266 2763.34 292.266C2767.75 292.266 2771.45 291.984 2774.45 291.422C2777.45 290.766 2780.41 289.875 2783.31 288.75C2789.88 286.031 2794.47 282.75 2797.09 278.906C2798.69 277.031 2800.52 276.094 2802.58 276.094C2804.73 276.094 2806.56 276.891 2808.06 278.484C2809.56 279.984 2810.31 281.719 2810.31 283.688C2810.31 285.562 2809.7 287.062 2808.48 288.188C2804.45 294.469 2796.95 299.438 2785.98 303.094C2765.64 309.75 2746.09 309.188 2727.34 301.406C2707.66 293.344 2693.69 279.75 2685.44 260.625C2681.31 251.25 2679.25 240.891 2679.25 229.547C2679.25 218.109 2681.03 207.75 2684.59 198.469C2688.16 189.094 2693.22 181.219 2699.78 174.844C2713.19 161.719 2731.7 155.156 2755.33 155.156C2797.7 156.938 2818.89 179.578 2818.89 223.078Z" fill="white"/>
</svg>
